<svg id="Layer_1" data-name="Layer 1" xmlns="http://www.w3.org/2000/svg" viewBox="0 0 200 140"><defs><style>.cls-1{fill:#231f20;}.cls-2{fill:#ff5f00;}.cls-3{fill:#eb001b;}.cls-4{fill:#f79e1b;}</style></defs><title>SVG</title><path class="cls-1" d="M55.71,123.56v-7.17a4.26,4.26,0,0,0-4.49-4.54,4.42,4.42,0,0,0-4,2,4.2,4.2,0,0,0-3.78-2,3.78,3.78,0,0,0-3.35,1.7v-1.41H37.59v11.43H40.1v-6.29a2.68,2.68,0,0,1,2.8-3c1.65,0,2.49,1.08,2.49,3v6.36H47.9v-6.33a2.69,2.69,0,0,1,2.8-3c1.7,0,2.51,1.08,2.51,3v6.36Zm37.14-11.43H88.76v-3.47H86.25v3.47H84v2.27H86.3v5.26c0,2.65,1,4.23,4,4.23a5.83,5.83,0,0,0,3.11-.88l-.72-2.13a4.59,4.59,0,0,1-2.2.65c-1.2,0-1.65-.76-1.65-1.91V114.4h4.06Zm21.2-.29a3.37,3.37,0,0,0-3,1.67v-1.39h-2.46v11.43h2.49v-6.41c0-1.89.81-2.94,2.39-2.94a4.05,4.05,0,0,1,1.55.29l.76-2.39a5.32,5.32,0,0,0-1.77-.31ZM82,113a8.55,8.55,0,0,0-4.66-1.2c-2.89,0-4.78,1.39-4.78,3.66,0,1.86,1.39,3,3.94,3.37l1.2.17c1.36.19,2,.55,2,1.2,0,.88-.91,1.39-2.61,1.39a6.08,6.08,0,0,1-3.8-1.2l-1.2,1.94A8.25,8.25,0,0,0,77,123.84c3.3,0,5.21-1.55,5.21-3.73s-1.51-3.06-4-3.42l-1.2-.17c-1.08-.14-1.94-.36-1.94-1.12s.81-1.34,2.18-1.34a7.36,7.36,0,0,1,3.59,1Zm66.59-1.2a3.37,3.37,0,0,0-3,1.67v-1.39h-2.46v11.43h2.49v-6.41c0-1.89.81-2.94,2.39-2.94a4.05,4.05,0,0,1,1.55.29l.76-2.39a5.32,5.32,0,0,0-1.77-.31Zm-32,6a5.77,5.77,0,0,0,5.56,6h.54a6,6,0,0,0,4.11-1.36l-1.2-2a5,5,0,0,1-3,1,3.67,3.67,0,0,1,0-7.32,5,5,0,0,1,3,1l1.2-2a6,6,0,0,0-4.11-1.36,5.77,5.77,0,0,0-6.09,5.44q0,.27,0,.54Zm23.28,0v-5.69h-2.49v1.39a4.34,4.34,0,0,0-3.59-1.67,6,6,0,1,0,0,12,4.34,4.34,0,0,0,3.59-1.67v1.39h2.49Zm-9.25,0a3.43,3.43,0,1,1,0,.27Q130.58,118,130.59,117.82Zm-30-6a6,6,0,0,0,.17,12h0a6.94,6.94,0,0,0,4.75-1.55l-1.2-1.84a5.44,5.44,0,0,1-3.32,1.2,3.17,3.17,0,0,1-3.42-2.8H106v-1c0-3.59-2.22-6-5.43-6Zm0,2.22a2.83,2.83,0,0,1,2.89,2.77h-6a2.94,2.94,0,0,1,3-2.77Zm62.29,3.78v-10.3h-2.39v6a4.34,4.34,0,0,0-3.59-1.67,6,6,0,0,0,0,12,4.34,4.34,0,0,0,3.59-1.67v1.39h2.39Zm4.15,4.05a1.15,1.15,0,0,1,1.08.68,1.11,1.11,0,0,1,0,.88,1.14,1.14,0,0,1-.62.6,1.12,1.12,0,0,1-.45.1,1.2,1.2,0,0,1-1.08-.69,1.12,1.12,0,0,1,0-.88,1.16,1.16,0,0,1,1.11-.68Zm0,2a.85.85,0,0,0,.35-.07.9.9,0,0,0,.27-.19.86.86,0,0,0-.27-1.39.86.86,0,0,0-.35-.07.9.9,0,0,0-.35.07.87.87,0,0,0-.29.19.87.87,0,0,0,.67,1.46Zm.07-1.42a.48.48,0,0,1,.31.1.3.3,0,0,1,.11.25.29.29,0,0,1-.08.22.42.42,0,0,1-.25.11l.35.39h-.27l-.32-.39h-.11v.39h-.23V122.5Zm-.26.2V123h.26a.25.25,0,0,0,.14,0,.12.12,0,0,0,0-.11.12.12,0,0,0,0-.11.25.25,0,0,0-.14,0Zm-13.15-4.85a3.43,3.43,0,1,1,0,.27Q153.67,118,153.68,117.84Zm-83.94,0v-5.71H67.25v1.39a4.34,4.34,0,0,0-3.59-1.67,6,6,0,0,0,0,12,4.34,4.34,0,0,0,3.59-1.67v1.39h2.49Zm-9.25,0a3.19,3.19,0,1,1,0,.3q0-.15,0-.3Z"/><g id="_Group_" data-name=" Group "><rect class="cls-2" x="81.17" y="25.05" width="37.65" height="67.66"/><path id="_Path_" data-name=" Path " class="cls-3" d="M83.56,58.89A43,43,0,0,1,100,25.05a43,43,0,1,0,0,67.66A43,43,0,0,1,83.56,58.89Z"/><path class="cls-4" d="M169.62,58.89A43,43,0,0,1,100,92.72a43,43,0,0,0,0-67.66,43,43,0,0,1,69.63,33.83Z"/><path class="cls-4" d="M165.51,85.55V84.16h.56v-.29h-1.42v.29h.61v1.39Zm2.76,0V83.87h-.43l-.5,1.2-.5-1.2h-.38v1.67h.31V84.29l.47,1.09h.32l.47-1.09v1.27Z"/></g></svg>