<svg id="Layer_1" data-name="Layer 1" xmlns="http://www.w3.org/2000/svg" xmlns:xlink="http://www.w3.org/1999/xlink" viewBox="0 0 270 140"><defs><style>.cls-1{fill:none;}.cls-2{clip-path:url(#clip-path);}.cls-3{fill:url(#linear-gradient);}</style><clipPath id="clip-path"><path class="cls-1" d="M138.59,57.83c-.12,9.4,8.38,14.65,14.78,17.77,6.58,3.2,8.79,5.25,8.76,8.11-.05,4.38-5.25,6.31-10.11,6.39-8.48.13-13.42-2.29-17.34-4.12l-3.06,14.3c3.93,1.81,11.22,3.39,18.78,3.46,17.73,0,29.34-8.75,29.4-22.33.07-17.23-23.83-18.18-23.66-25.88.06-2.33,2.28-4.83,7.17-5.46A31.79,31.79,0,0,1,180,53l3-13.84a45.26,45.26,0,0,0-15.8-2.9c-16.69,0-28.43,8.87-28.53,21.57m72.85-20.38a7.7,7.7,0,0,0-7.19,4.79l-25.33,60.49h17.72L200.17,93h21.66l2,9.75h15.62L225.86,37.45H211.44m2.48,17.63L219,79.59H205l8.89-24.51M117.1,37.45l-14,65.28H120l14-65.28H117.1m-25,0L74.54,81.88,67.43,44.1a7.87,7.87,0,0,0-7.79-6.65H30.91l-.4,1.9c5.9,1.28,12.6,3.34,16.66,5.55,2.49,1.35,3.19,2.53,4,5.74l13.47,52.09H82.49l27.36-65.28H92.12"/></clipPath><linearGradient id="linear-gradient" x1="183.45" y1="227.69" x2="183.87" y2="227.69" gradientTransform="matrix(419.71, -154.57, -154.57, -419.71, -41754.41, 124019.03)" gradientUnits="userSpaceOnUse"><stop offset="0" stop-color="#222357"/><stop offset="1" stop-color="#254aa5"/></linearGradient></defs><title>SVG</title><g id="layer1"><g id="g10267"><g class="cls-2"><g id="g10269"><g id="g10275"><path id="path10283" class="cls-3" d="M8.63,44.32,214.53-31.51l46.84,127.2L55.47,171.52"/></g></g></g></g></g></svg>