<svg id="Layer_1" data-name="Layer 1" xmlns="http://www.w3.org/2000/svg" viewBox="0 0 220 140"><defs><style>.cls-1{fill:#3b477d;}</style></defs><title>SVG</title><g id="Personal"><g id="Site_Personal" data-name="Site Personal"><g id="vbyvisa_blu_std" data-name="vbyvisa blu std"><g id="Layer_1-2" data-name="Layer 1"><g id="Group"><g id="Shape"><path class="cls-1" d="M38.7,58,30.17,31.76h3.65l4.08,12.93C39,48.23,40,51.43,40.68,54.5h.08c.74-3,1.82-6.35,3-9.78l4.42-13h3.61L42.43,58Z"/><path class="cls-1" d="M53.56,49.21c.08,4.63,3,6.54,6.44,6.54a12.3,12.3,0,0,0,5.2-1l.58,2.45a15.23,15.23,0,0,1-6.25,1.17c-5.78,0-9.24-3.81-9.24-9.5s3.34-10.16,8.81-10.16c6.13,0,7.76,5.41,7.76,8.88a14.24,14.24,0,0,1-.11,1.6Zm10-2.45c0-2.18-.89-5.57-4.73-5.57-3.46,0-5,3.19-5.24,5.57Z"/><path class="cls-1" d="M69.54,45c0-2.22,0-4.13-.15-5.88h3l.11,3.7h.15a5.64,5.64,0,0,1,5.2-4.13,3.71,3.71,0,0,1,1,.12v3.23A4.89,4.89,0,0,0,77.65,42c-2.4,0-4.11,1.83-4.57,4.4a9.3,9.3,0,0,0-.16,1.6V58H69.54Z"/><path class="cls-1" d="M84.64,33.86a2.11,2.11,0,0,1-4.23,0,2.08,2.08,0,0,1,2.13-2.14,2,2,0,0,1,2.1,2.14Zm-3.8,5.3h3.42V58H80.83Z"/><path class="cls-1" d="M88.71,58V41.77H86.07V39.16h2.64v-.9c0-2.65.58-5.06,2.17-6.58a6.51,6.51,0,0,1,4.58-1.75,7.86,7.86,0,0,1,2.91.55l-.47,2.65a5.06,5.06,0,0,0-2.17-.43c-2.91,0-3.65,2.57-3.65,5.45v1h4.53v2.61H92.08V58H88.71Z"/><path class="cls-1" d="M103.79,33.86a2.11,2.11,0,0,1-4.23,0,2.09,2.09,0,0,1,2.13-2.14,2,2,0,0,1,2.1,2.14Zm-3.8,5.3h3.41V58H100Z"/><path class="cls-1" d="M109.42,49.21c.08,4.63,3,6.54,6.44,6.54a12.3,12.3,0,0,0,5.2-1l.58,2.45a15.25,15.25,0,0,1-6.25,1.17c-5.78,0-9.24-3.81-9.24-9.5s3.34-10.16,8.81-10.16c6.13,0,7.76,5.41,7.76,8.88a13.17,13.17,0,0,1-.11,1.6Zm10-2.45c0-2.18-.89-5.57-4.73-5.57-3.46,0-5,3.19-5.24,5.57Z"/><path class="cls-1" d="M141.62,30.36V53.14c0,1.68,0,3.58.15,4.87H138.7l-.16-3.27h-.08a6.94,6.94,0,0,1-6.4,3.69c-4.53,0-8-3.85-8-9.58,0-6.27,3.84-10.13,8.42-10.13a6.27,6.27,0,0,1,5.66,2.88h.08V30.36h3.42ZM138.2,46.83a6.2,6.2,0,0,0-.15-1.44,5,5,0,0,0-4.93-4c-3.53,0-5.62,3.11-5.62,7.28,0,3.81,1.86,7,5.55,7a5.14,5.14,0,0,0,5-4.09,6.05,6.05,0,0,0,.15-1.48V46.83Z"/><path class="cls-1" d="M154.26,58c.08-1.29.15-3.2.15-4.87V30.36h3.37V42.2h.08a7,7,0,0,1,6.4-3.46c4.66,0,8,3.9,7.91,9.62,0,6.74-4.23,10.08-8.42,10.08a6.67,6.67,0,0,1-6.28-3.54h-.11L157.21,58h-2.95Zm3.53-7.56a6.54,6.54,0,0,0,.16,1.25,5.27,5.27,0,0,0,5.12,4c3.57,0,5.7-2.92,5.7-7.24,0-3.78-1.94-7-5.58-7a5.45,5.45,0,0,0-5.2,4.21,6.53,6.53,0,0,0-.2,1.4v3.39Z"/><path class="cls-1" d="M175.9,39.16,180,50.3c.43,1.25.9,2.73,1.2,3.86h.08c.35-1.13.74-2.57,1.2-3.93l3.72-11.06h3.61L184.71,52.6c-2.44,6.46-4.11,9.78-6.44,11.8a9.21,9.21,0,0,1-4.19,2.22l-.85-2.88a9.05,9.05,0,0,0,3-1.68,10.47,10.47,0,0,0,2.87-3.81,2.54,2.54,0,0,0,.27-.81,3.06,3.06,0,0,0-.23-.9l-6.95-17.37h3.72Z"/></g><g id="Shape-2" data-name="Shape"><path class="cls-1" d="M86.79,70.87,76.44,97.14,72.25,74.81a4.63,4.63,0,0,0-4.58-3.93H50.75L50.52,72a41.9,41.9,0,0,1,9.81,3.28c1.46.81,1.88,1.5,2.35,3.4l7.93,30.8H81.13L97.24,70.88H86.79Z"/><polygon class="cls-1" points="101.51 70.87 93.29 109.47 103.23 109.47 111.44 70.87 101.51 70.87"/><path class="cls-1" d="M124.49,81.57c0-1.38,1.35-2.86,4.22-3.24A18.83,18.83,0,0,1,138.53,80l1.74-8.18a26.53,26.53,0,0,0-9.3-1.72c-9.84,0-16.74,5.25-16.81,12.77-.05,5.55,4.95,8.66,8.71,10.51S128,96.52,128,98.22c0,2.59-3.09,3.72-5.94,3.77a20.85,20.85,0,0,1-10.22-2.43L110.06,108a30.07,30.07,0,0,0,11.06,2.05c10.43,0,17.27-5.19,17.3-13.21,0-10.19-14-10.75-13.93-15.3"/><path class="cls-1" d="M153.29,95.8l5.28-14.49,3,14.49Zm3.78-24.92a4.52,4.52,0,0,0-4.24,2.83l-14.92,35.76h10.45l2.08-5.76h12.73l1.19,5.76h9.22l-8-38.59Z"/></g></g></g></g></g></g></svg>