<svg id="Layer_1" data-name="Layer 1" xmlns="http://www.w3.org/2000/svg" viewBox="0 0 290 140"><defs><style>.cls-1{fill:#006d69;}.cls-2{fill:#00716d;}.cls-3{fill:#47a141;}.cls-4{fill:#fff;}</style></defs><title>SVG</title><path class="cls-1" d="M164.38,85.42l-21.14,6.65V58.5c0-1.4,0-1.4-1.44-1.4-3.63,0-7.31,0-10.94,0-.95,0-1.24.29-1.24,1.24,0,10.94,0,21.84,0,32.78,0,.87.25,1.2,1.15,1.2,3.72,0,7.43,0,11.23.12l-.66.29L63,117.37c-.54.16-1,.37-1.28-.41-3-8.13-6-16.27-9-24.56.54,0,.95-.08,1.36-.08,3.59,0,7.14,0,10.73,0,1,0,1.28-.33,1.24-1.28,0-2.64,0-5.28,0-7.93,0-1.07.33-1.32,1.36-1.32A30.57,30.57,0,0,0,78.6,80.25C82.07,79,84.91,77,86.32,73.44a10.55,10.55,0,0,0-5.57-14,24.15,24.15,0,0,0-9.87-2.19c-5.78-.12-11.56,0-17.34-.12-1.11,0-1,.7-1,1.36V91.2a1.81,1.81,0,0,0-.21,0C45.57,72.91,38.88,54.74,32.15,36.37c2.27-.12,4.42-.29,6.56-.41Q67,34.41,95.24,32.82l43.55-2.48c.83,0,1.07.37,1.32.95q8.61,19.2,17.26,38.39c2.15,4.79,4.29,9.58,6.44,14.32a15.14,15.14,0,0,0,.58,1.4Zm-41-17.75c0-.49.08-.87.08-1.2,0-2.39,0-4.79,0-7.14a1.3,1.3,0,0,0-1.11-1.53,32.24,32.24,0,0,0-12.22-1.24,25.73,25.73,0,0,0-11.15,2.93C92.8,62.88,89.29,68,89.5,75.26s4,12.51,10.73,15.23c7.64,3.1,15.44,3,23.32.87.66-.17.83-.54.83-1.16,0-2.39,0-4.79,0-7.14a5.52,5.52,0,0,0-.12-.74c-1.86.5-3.59,1.07-5.37,1.44a16.28,16.28,0,0,1-9.41-.54,8.8,8.8,0,0,1-5.74-9.46c.41-4.58,3-7.47,7.35-8.3a18.23,18.23,0,0,1,11.06,1.65,12.54,12.54,0,0,1,1.32.54Zm21.18-21.51c0-4.62-3.3-7.72-8.21-7.72s-8.21,3.1-8.21,7.72,3.3,7.64,8.17,7.68,8.26-3.1,8.26-7.68Zm0,0"/><path class="cls-1" d="M67.74,73.94c-.29,0-.58,0-.87,0-.66.08-1-.16-1-.91,0-2.43,0-4.91,0-7.35,0-.54.08-.95.74-.91a35.77,35.77,0,0,1,4.71.62A3.5,3.5,0,0,1,74,69.07c.08,2-.66,3.43-2.39,4.09a30.51,30.51,0,0,1-3.84.95.25.25,0,0,1,0-.16Zm0,0"/><path class="cls-2" d="M182.3,43.14h12.05a14.7,14.7,0,0,1,5.74.95,9.69,9.69,0,0,1,3.63,2.77,11.19,11.19,0,0,1,2.06,4.21,20.38,20.38,0,0,1,.66,5.08,18,18,0,0,1-.95,6.52,10.8,10.8,0,0,1-2.64,3.88,9.1,9.1,0,0,1-3.63,2.11,18,18,0,0,1-4.83.7H182.34V43.14Zm8.09,5.94V63.41h2a8.53,8.53,0,0,0,3.63-.58,3.89,3.89,0,0,0,1.69-2,12.1,12.1,0,0,0,.62-4.54q0-4.15-1.36-5.7c-.91-1-2.39-1.53-4.5-1.53Zm0,0"/><path class="cls-2" d="M209.3,60.73l7.72-.5a5.64,5.64,0,0,0,1,2.85,4.26,4.26,0,0,0,3.59,1.61,4,4,0,0,0,2.68-.83,2.45,2.45,0,0,0,.95-1.9,2.36,2.36,0,0,0-.91-1.82c-.58-.54-2-1-4.17-1.53-3.55-.78-6.11-1.86-7.6-3.18a6.42,6.42,0,0,1-2.31-5.08,6.85,6.85,0,0,1,1.16-3.84A7.89,7.89,0,0,1,215,43.68a16.14,16.14,0,0,1,6.44-1q5,0,7.68,1.86a8,8,0,0,1,3.14,5.94l-7.64.45a4,4,0,0,0-1.28-2.56,4.16,4.16,0,0,0-2.68-.83,3.24,3.24,0,0,0-2.15.62,1.76,1.76,0,0,0-.7,1.44,1.49,1.49,0,0,0,.58,1.11,6.7,6.7,0,0,0,2.73.95A36,36,0,0,1,228.7,54,8.05,8.05,0,0,1,232,56.85a7.29,7.29,0,0,1,1,3.88,8.24,8.24,0,0,1-1.4,4.66,8.92,8.92,0,0,1-3.92,3.22,15.59,15.59,0,0,1-6.32,1.11c-4.46,0-7.56-.87-9.29-2.56a9.82,9.82,0,0,1-2.85-6.44Zm0,0"/><path class="cls-2" d="M235.76,60.73l7.72-.5a5.68,5.68,0,0,0,1,2.85,4.26,4.26,0,0,0,3.59,1.61,4,4,0,0,0,2.68-.83,2.44,2.44,0,0,0,.95-1.9,2.36,2.36,0,0,0-.91-1.82c-.58-.54-2-1-4.17-1.53-3.55-.78-6.11-1.86-7.6-3.18a6.43,6.43,0,0,1-2.31-5.08,6.87,6.87,0,0,1,1.15-3.84,7.91,7.91,0,0,1,3.51-2.85,16.14,16.14,0,0,1,6.44-1q5,0,7.68,1.86a8,8,0,0,1,3.14,5.94L251,50.9a4,4,0,0,0-1.28-2.56,4.16,4.16,0,0,0-2.68-.83,3.25,3.25,0,0,0-2.15.62,1.76,1.76,0,0,0-.7,1.44,1.49,1.49,0,0,0,.58,1.11,6.69,6.69,0,0,0,2.72.95A35.92,35.92,0,0,1,255.17,54a8.06,8.06,0,0,1,3.34,2.89,7.29,7.29,0,0,1,1,3.88,8.25,8.25,0,0,1-1.4,4.66,8.9,8.9,0,0,1-3.92,3.22,15.58,15.58,0,0,1-6.31,1.11c-4.46,0-7.56-.87-9.29-2.56a9.82,9.82,0,0,1-2.85-6.44Zm0,0"/><path class="cls-2" d="M187.25,79.76l2.15.66a4,4,0,0,1-.7,1.53,3.06,3.06,0,0,1-1.16.91,4.25,4.25,0,0,1-1.77.33,5.09,5.09,0,0,1-2.11-.37,3.29,3.29,0,0,1-1.4-1.32,4.71,4.71,0,0,1-.58-2.43,4.2,4.2,0,0,1,6.4-3.51,3.66,3.66,0,0,1,1.28,1.86l-2.19.49a2.16,2.16,0,0,0-.25-.54,1.3,1.3,0,0,0-.49-.45,1.21,1.21,0,0,0-.66-.17,1.39,1.39,0,0,0-1.28.66,3.06,3.06,0,0,0-.33,1.57,2.87,2.87,0,0,0,.41,1.82,1.36,1.36,0,0,0,1.11.49,1.34,1.34,0,0,0,1.07-.41,2.32,2.32,0,0,0,.49-1.11Zm0,0"/><path class="cls-2" d="M190.76,79A4.24,4.24,0,0,1,191.84,76a4,4,0,0,1,3-1.07A4.17,4.17,0,0,1,197.91,76,4.07,4.07,0,0,1,199,79a5.35,5.35,0,0,1-.45,2.31,3.7,3.7,0,0,1-1.36,1.4,4.45,4.45,0,0,1-2.23.49,5,5,0,0,1-2.23-.41,3.52,3.52,0,0,1-1.44-1.36,4.69,4.69,0,0,1-.49-2.39Zm2.48,0a2.65,2.65,0,0,0,.45,1.73,1.7,1.7,0,0,0,2.48,0,2.9,2.9,0,0,0,.45-1.86,2.63,2.63,0,0,0-.45-1.65,1.58,1.58,0,0,0-1.24-.54,1.44,1.44,0,0,0-1.2.54,2.41,2.41,0,0,0-.49,1.78Zm0,0"/><path class="cls-2" d="M200.8,75.05h3.26l1.24,4.87,1.24-4.87h3.22v8h-2V77L206.16,83h-1.82L202.78,77V83h-2Zm0,0"/><path class="cls-2" d="M211.78,75.05h4.09a2.89,2.89,0,0,1,2,.62,2.34,2.34,0,0,1,.66,1.82,2.43,2.43,0,0,1-.74,1.9,3.2,3.2,0,0,1-2.23.66h-1.36v3h-2.48Zm2.48,3.38h.62a1.42,1.42,0,0,0,1-.25.74.74,0,0,0,.29-.62.85.85,0,0,0-.25-.62,1.39,1.39,0,0,0-.95-.25h-.7Zm0,0"/><path class="cls-2" d="M220.28,75.05h2.48v6h3.84v2h-6.32Zm0,0"/><rect class="cls-2" x="228.25" y="75.05" width="2.48" height="7.97"/><path class="cls-2" d="M237.83,81.7H235L234.65,83h-2.52l3-8h2.68l3,8h-2.6ZM237.33,80l-.87-2.85L235.6,80Zm0,0"/><path class="cls-2" d="M242.08,75.05h2.31l3,4.42V75.05h2.31v8H247.4l-3-4.38V83h-2.31Zm0,0"/><path class="cls-2" d="M251.2,75.05h7.51v2H256.2v6h-2.48V77H251.2Zm0,0"/><path class="cls-3" d="M135.69,110.19a13.3,13.3,0,0,1-6-1.32c-.87-.54-5-5.53-12.22-14.86l-.25-.33-.08-.41a6.33,6.33,0,0,1,1.53-5.12,7.32,7.32,0,0,1,5.08-2.68,3.21,3.21,0,0,1,1.12.16c2.27.7,7.35,5.24,10.15,7.93,2.19-3.18,7.31-10.57,12.67-18C162.2,55.32,164.14,54.45,165,54.08a30.26,30.26,0,0,1,11.1-2.43,8.54,8.54,0,0,1,1,0,1.86,1.86,0,0,1,1.65,1.16c.54,1.32-.29,2.19-3.26,5.37-5.86,6.32-19.61,21.1-32.33,48.43l-.08.16L143,107c-1.61,2.15-4.17,3.22-7.31,3.22Zm0,0"/><path class="cls-4" d="M176.11,53.38a6.58,6.58,0,0,1,.91,0c2.68.21-17.34,14-35.3,52.64a7.38,7.38,0,0,1-6,2.52,11.79,11.79,0,0,1-5.12-1.07c-1.07-.66-11.77-14.45-11.77-14.45-.54-3.34,3.06-5.86,5-5.86a2.49,2.49,0,0,1,.58.08c2.44.62,10.94,8.88,10.94,8.88s26.51-38.76,30.34-40.46a28.42,28.42,0,0,1,10.45-2.31m0-3.3a31.58,31.58,0,0,0-11.77,2.6c-1.28.58-3.22,1.4-18,22-4.62,6.44-9,12.8-11.6,16.47-.58-.54-1.2-1.07-1.82-1.65-4.54-4-6.36-5-7.56-5.32a5,5,0,0,0-1.61-.25,8.89,8.89,0,0,0-6.36,3.3,7.87,7.87,0,0,0-1.9,6.44l.12.83.49.66c11.06,14.24,12.1,14.9,12.63,15.23a15.21,15.21,0,0,0,6.85,1.57,10.55,10.55,0,0,0,8.63-3.76l.25-.29.17-.37c12.59-27.08,26.21-41.74,32-48,1-1.07,1.82-1.94,2.39-2.64s2-2.43,1.2-4.5a3.59,3.59,0,0,0-3.05-2.23,10.75,10.75,0,0,0-1.16,0Zm0,0"/></svg>