<svg id="Layer_1" data-name="Layer 1" xmlns="http://www.w3.org/2000/svg" viewBox="0 0 280 140"><defs><style>.cls-1{fill:none;}.cls-2{fill:#f79e1b;}.cls-3{fill:#eb001b;}</style></defs><title>SVG</title><rect class="cls-1" x="2" y="6.1" width="275.71" height="127.81"/><path class="cls-2" d="M51.35,82.19a15.81,15.81,0,0,0-3.63-1.71,12.87,12.87,0,0,0-4-.61,10.19,10.19,0,0,0-2.47.28,6.13,6.13,0,0,0-1.92.81,4,4,0,0,0-1.24,1.27,3.19,3.19,0,0,0-.44,1.67,2.61,2.61,0,0,0,.39,1.45,3.14,3.14,0,0,0,1.11,1,7.17,7.17,0,0,0,1.77.69,22.4,22.4,0,0,0,2.35.46l1.87.25a20.52,20.52,0,0,1,3.2.71,9.75,9.75,0,0,1,2.79,1.35,6.66,6.66,0,0,1,2,2.18,6.37,6.37,0,0,1,.74,3.18A7.46,7.46,0,0,1,53,98.84a8,8,0,0,1-2.35,2.66,10.86,10.86,0,0,1-3.44,1.64,15,15,0,0,1-4.16.56,18.24,18.24,0,0,1-2.85-.23,19.9,19.9,0,0,1-2.91-.68,17.61,17.61,0,0,1-2.75-1.13,11.79,11.79,0,0,1-2.35-1.58l2.37-3.47a8.68,8.68,0,0,0,1.67,1.18,14.67,14.67,0,0,0,4.42,1.57,13.1,13.1,0,0,0,2.38.22,10.77,10.77,0,0,0,2.48-.27,6.77,6.77,0,0,0,2-.79,4.23,4.23,0,0,0,1.34-1.26,3,3,0,0,0,.49-1.67,2.62,2.62,0,0,0-1.55-2.41,13.91,13.91,0,0,0-4.53-1.23l-2.1-.29a16.39,16.39,0,0,1-2.94-.69,8.54,8.54,0,0,1-2.57-1.36,6.56,6.56,0,0,1-1.81-2.2,6.9,6.9,0,0,1-.69-3.21,7.52,7.52,0,0,1,.84-3.6,7.84,7.84,0,0,1,2.29-2.64,10.51,10.51,0,0,1,3.39-1.63,14.84,14.84,0,0,1,4.14-.56,17.07,17.07,0,0,1,5.33.78,18.42,18.42,0,0,1,4.43,2.13Zm14.72,2.06a8.76,8.76,0,0,1,3.54.7,7.92,7.92,0,0,1,2.76,2A9.3,9.3,0,0,1,74.16,90,11.53,11.53,0,0,1,74.81,94c0,.26,0,.51,0,.77s0,.5-.06.73H61.07a6,6,0,0,0,.71,2.14A5.05,5.05,0,0,0,63,99.06a4.94,4.94,0,0,0,1.64.84,6.57,6.57,0,0,0,1.89.27,8.06,8.06,0,0,0,2.79-.51,9,9,0,0,0,2.56-1.44l2,2.88a10,10,0,0,1-3.6,2,13.66,13.66,0,0,1-4,.58A10.22,10.22,0,0,1,62.5,103a8.67,8.67,0,0,1-3-2A8.89,8.89,0,0,1,57.56,98a11,11,0,0,1-.7-4,11.13,11.13,0,0,1,.68-4,9,9,0,0,1,1.89-3.08,8.42,8.42,0,0,1,2.9-2A9.62,9.62,0,0,1,66.07,84.25ZM66,87.84a5.25,5.25,0,0,0-1.92.33,4.17,4.17,0,0,0-1.45.94,4.94,4.94,0,0,0-1,1.45,6.87,6.87,0,0,0-.54,1.84h9.59A5.77,5.77,0,0,0,69.14,89,4.29,4.29,0,0,0,66,87.84Zm21.44-3.59a10,10,0,0,1,3.88.74,7.81,7.81,0,0,1,3,2.21L91.75,90a7.75,7.75,0,0,0-2-1.42,5.63,5.63,0,0,0-2.39-.49,5.38,5.38,0,0,0-2.16.43,5.15,5.15,0,0,0-1.74,1.22,5.61,5.61,0,0,0-1.15,1.87,7.16,7.16,0,0,0,0,4.81,5.61,5.61,0,0,0,1.15,1.87,5.17,5.17,0,0,0,1.74,1.22,5.38,5.38,0,0,0,2.16.43,5.73,5.73,0,0,0,2.49-.55,8,8,0,0,0,2-1.38l2.49,2.78a8.17,8.17,0,0,1-3,2.21,9.89,9.89,0,0,1-3.86.74,10.34,10.34,0,0,1-4-.74,8.93,8.93,0,0,1-5-5.12,11.06,11.06,0,0,1,0-7.72,8.93,8.93,0,0,1,5-5.12A10.34,10.34,0,0,1,87.43,84.25ZM115,95.38a8.93,8.93,0,0,1-.73,3.78,7.35,7.35,0,0,1-1.93,2.59,7.74,7.74,0,0,1-2.74,1.48,10.82,10.82,0,0,1-6.33,0,7.83,7.83,0,0,1-2.75-1.48,7.19,7.19,0,0,1-1.93-2.59,9,9,0,0,1-.72-3.78V84.73h4.05V95a6.54,6.54,0,0,0,.35,2.27,4,4,0,0,0,1,1.52,3.64,3.64,0,0,0,1.44.84,6.18,6.18,0,0,0,3.55,0,3.64,3.64,0,0,0,1.44-.84,3.94,3.94,0,0,0,1-1.52A6.53,6.53,0,0,0,111,95V84.73H115Zm14.72-11.13a10,10,0,0,1,1.67.13,7.3,7.3,0,0,1,1.44.39l-1,4a5.74,5.74,0,0,0-1.49-.5,7.89,7.89,0,0,0-1.58-.17,4.69,4.69,0,0,0-1.78.33,3.76,3.76,0,0,0-1.39,1,4.53,4.53,0,0,0-.91,1.56,6.27,6.27,0,0,0-.33,2.1v10.17h-4V84.73h4v2.08a5.56,5.56,0,0,1,2.3-1.95A7.39,7.39,0,0,1,129.75,84.25Zm13.55,0a8.76,8.76,0,0,1,3.54.7,7.92,7.92,0,0,1,2.76,2A9.31,9.31,0,0,1,151.39,90,11.54,11.54,0,0,1,152,94c0,.26,0,.51,0,.77s0,.5-.06.73H138.3A6,6,0,0,0,139,97.6a5.05,5.05,0,0,0,1.25,1.46,4.94,4.94,0,0,0,1.64.84,6.57,6.57,0,0,0,1.89.27,8.06,8.06,0,0,0,2.79-.51,9,9,0,0,0,2.56-1.44l2,2.88a10,10,0,0,1-3.6,2,13.66,13.66,0,0,1-4,.58,10.22,10.22,0,0,1-3.82-.69,8.67,8.67,0,0,1-3-2A8.88,8.88,0,0,1,134.78,98a11,11,0,0,1-.7-4,11.13,11.13,0,0,1,.68-4,9,9,0,0,1,1.89-3.08,8.42,8.42,0,0,1,2.9-2A9.62,9.62,0,0,1,143.29,84.25Zm-.08,3.59a5.25,5.25,0,0,0-1.92.33,4.17,4.17,0,0,0-1.45.94,4.94,4.94,0,0,0-1,1.45,6.88,6.88,0,0,0-.54,1.84h9.59A5.77,5.77,0,0,0,146.36,89,4.29,4.29,0,0,0,143.22,87.84ZM169.44,75.7a15.43,15.43,0,0,1,3.47.39A13.6,13.6,0,0,1,176,77.21,12.15,12.15,0,0,1,178.66,79a10.26,10.26,0,0,1,2,2.36L177,83.79a8.86,8.86,0,0,0-3.18-2.86,9.09,9.09,0,0,0-4.37-1,10.05,10.05,0,0,0-3.82.71,8.93,8.93,0,0,0-3,2,9.26,9.26,0,0,0-2,3.11,11.38,11.38,0,0,0,0,8,9.26,9.26,0,0,0,2,3.11,8.91,8.91,0,0,0,3,2,10.05,10.05,0,0,0,3.82.71A8.87,8.87,0,0,0,177,95.66l3.55,2.61a11.66,11.66,0,0,1-2,2.28,12.7,12.7,0,0,1-2.59,1.72,13.52,13.52,0,0,1-3,1.09,15.86,15.86,0,0,1-9.12-.68,13,13,0,0,1-7.39-7.36,15.56,15.56,0,0,1,0-11.19,13,13,0,0,1,7.39-7.36A15.11,15.11,0,0,1,169.44,75.7Zm23.83,8.55a10.4,10.4,0,0,1,4,.74,9.68,9.68,0,0,1,3.16,2,9.39,9.39,0,0,1,2.08,3.08,10.28,10.28,0,0,1,0,7.72,9.38,9.38,0,0,1-2.08,3.08,9.68,9.68,0,0,1-3.16,2,10.95,10.95,0,0,1-7.93,0,9.56,9.56,0,0,1-3.15-2,9.44,9.44,0,0,1-2.07-3.08,10.28,10.28,0,0,1,0-7.72A9.45,9.45,0,0,1,186.16,87a9.56,9.56,0,0,1,3.15-2A10.41,10.41,0,0,1,193.27,84.25Zm0,3.8a6,6,0,0,0-2.3.43,5.42,5.42,0,0,0-1.83,1.22,5.68,5.68,0,0,0-1.22,1.87,6.73,6.73,0,0,0,0,4.81,5.68,5.68,0,0,0,1.22,1.87A5.44,5.44,0,0,0,191,99.47a6.29,6.29,0,0,0,4.59,0,5.49,5.49,0,0,0,3.07-3.09,6.73,6.73,0,0,0,0-4.81,5.6,5.6,0,0,0-1.23-1.87,5.53,5.53,0,0,0-1.84-1.22A6,6,0,0,0,193.27,88.05Zm22.09-3.8A7,7,0,0,1,221.18,87V75.43h4v27.79h-4V101a7.13,7.13,0,0,1-2.39,2,7.4,7.4,0,0,1-3.42.73,9,9,0,0,1-6.56-2.74,9.3,9.3,0,0,1-2-3.08,11.05,11.05,0,0,1,0-7.82,9.32,9.32,0,0,1,2-3.08,9,9,0,0,1,6.56-2.74Zm.48,3.8a5.58,5.58,0,0,0-2.34.47,5.23,5.23,0,0,0-1.75,1.27,5.64,5.64,0,0,0-1.1,1.88,7,7,0,0,0,0,4.59,5.64,5.64,0,0,0,1.1,1.88,5.23,5.23,0,0,0,1.75,1.27,6,6,0,0,0,4.62,0,5.26,5.26,0,0,0,1.76-1.24A5.61,5.61,0,0,0,221,96.33a7,7,0,0,0,0-4.71,5.63,5.63,0,0,0-1.14-1.87,5.3,5.3,0,0,0-1.76-1.25A5.59,5.59,0,0,0,215.85,88.05Zm22.79-3.8a8.75,8.75,0,0,1,3.54.7,7.91,7.91,0,0,1,2.76,2A9.29,9.29,0,0,1,246.73,90a11.52,11.52,0,0,1,.65,3.95c0,.26,0,.51,0,.77s0,.5-.06.73H233.64a6,6,0,0,0,.71,2.14,5,5,0,0,0,1.25,1.46,4.93,4.93,0,0,0,1.64.84,6.58,6.58,0,0,0,1.89.27,8.06,8.06,0,0,0,2.79-.51,9,9,0,0,0,2.56-1.44l2,2.88a10.06,10.06,0,0,1-3.6,2,13.65,13.65,0,0,1-4,.58,10.22,10.22,0,0,1-3.82-.69,8.67,8.67,0,0,1-3-2A8.9,8.9,0,0,1,230.13,98a11,11,0,0,1-.69-4,11.13,11.13,0,0,1,.67-4A9.06,9.06,0,0,1,232,86.94a8.42,8.42,0,0,1,2.9-2A9.63,9.63,0,0,1,238.64,84.25Zm10.67,19v-.93h.37v-.19h-1v.19h.38v.93Zm1.85,0V102.1h-.29l-.34.77-.34-.77h-.29v1.12h.21v-.85l.32.73h.21l.32-.73v.85Zm-12.6-15.38a5.25,5.25,0,0,0-1.92.33,4.17,4.17,0,0,0-1.45.94,5,5,0,0,0-1,1.45,6.9,6.9,0,0,0-.54,1.84h9.59A5.76,5.76,0,0,0,241.71,89,4.29,4.29,0,0,0,238.56,87.84Z"/><path class="cls-3" d="M64.62,65.1H60.1V42L51.91,62.36H47.15L39,42.26V65.1H34.44v-28h6.95l8.15,20,8.15-20h6.95Zm23.82,0H84.26V62.8a7.39,7.39,0,0,1-2.48,2,7.66,7.66,0,0,1-3.54.76,9.34,9.34,0,0,1-6.81-2.84,9.68,9.68,0,0,1-2-3.19,11.46,11.46,0,0,1,0-8.11,9.69,9.69,0,0,1,2-3.19,9.34,9.34,0,0,1,6.81-2.84,7.59,7.59,0,0,1,3.54.77,7.5,7.5,0,0,1,2.48,2.05V45.93h4.18ZM78.73,49.37a5.78,5.78,0,0,0-2.43.49,5.43,5.43,0,0,0-1.81,1.32,5.85,5.85,0,0,0-1.14,2,7.29,7.29,0,0,0,0,4.76,5.84,5.84,0,0,0,1.14,2,5.41,5.41,0,0,0,1.81,1.32,6.22,6.22,0,0,0,4.79,0,5.48,5.48,0,0,0,1.82-1.29A5.84,5.84,0,0,0,84.1,58a7.31,7.31,0,0,0,0-4.88,5.85,5.85,0,0,0-1.18-1.94,5.5,5.5,0,0,0-1.82-1.29A5.76,5.76,0,0,0,78.73,49.37Zm28.92,1.36a11.56,11.56,0,0,0-1.08-.55,12.2,12.2,0,0,0-1.42-.53,15,15,0,0,0-1.65-.4,9.81,9.81,0,0,0-1.77-.16,4.81,4.81,0,0,0-2.67.63,1.91,1.91,0,0,0-1,1.65,1.38,1.38,0,0,0,.25.84,1.92,1.92,0,0,0,.67.56,4.09,4.09,0,0,0,1,.35q.58.13,1.24.23l2,.3a10.33,10.33,0,0,1,4.9,1.83,4.58,4.58,0,0,1,1.76,3.83,5.47,5.47,0,0,1-.59,2.53,5.72,5.72,0,0,1-1.7,2,8.31,8.31,0,0,1-2.74,1.29,13.62,13.62,0,0,1-3.69.46q-.74,0-1.72-.09a14.34,14.34,0,0,1-2.08-.36,15.15,15.15,0,0,1-2.24-.75A10.33,10.33,0,0,1,93,63.12L94.91,60a10,10,0,0,0,1.13.75,8.18,8.18,0,0,0,1.38.62,10.49,10.49,0,0,0,1.7.43,12.58,12.58,0,0,0,2.11.16,6.71,6.71,0,0,0,3.26-.63,1.91,1.91,0,0,0,1.1-1.71,1.58,1.58,0,0,0-.8-1.35,6.3,6.3,0,0,0-2.52-.77l-2-.26a9.21,9.21,0,0,1-4.85-1.87,4.73,4.73,0,0,1-1.65-3.75A5.82,5.82,0,0,1,94.32,49,5.33,5.33,0,0,1,95.9,47.1a7.58,7.58,0,0,1,2.49-1.22,11.68,11.68,0,0,1,3.3-.43A16.56,16.56,0,0,1,106,46a12.26,12.26,0,0,1,3.5,1.49Zm19.86-1h-7.35v8.35a5,5,0,0,0,.24,1.64,3.06,3.06,0,0,0,.65,1.11,2.47,2.47,0,0,0,1,.63,3.47,3.47,0,0,0,1.19.2,5.6,5.6,0,0,0,2-.38,10.41,10.41,0,0,0,1.87-.92l1.66,3.34A13.1,13.1,0,0,1,126.12,65a9,9,0,0,1-3.27.56,6.86,6.86,0,0,1-5.07-1.81Q116,62,116,58.16V49.73h-3.82v-3.8H116V40.12h4.2v5.81h7.35Zm12.87-4.3a9.07,9.07,0,0,1,3.67.73,8.2,8.2,0,0,1,2.86,2.06,9.66,9.66,0,0,1,1.86,3.18,12,12,0,0,1,.67,4.09c0,.27,0,.53,0,.8s0,.52-.06.76H135.2a6.22,6.22,0,0,0,.74,2.22,5.24,5.24,0,0,0,1.3,1.51,5.14,5.14,0,0,0,1.7.87,6.8,6.8,0,0,0,2,.28,8.37,8.37,0,0,0,2.89-.53,9.32,9.32,0,0,0,2.65-1.49l2.08,3a10.44,10.44,0,0,1-3.73,2.1,14.18,14.18,0,0,1-4.15.6,10.58,10.58,0,0,1-4-.72,9,9,0,0,1-3.1-2,9.22,9.22,0,0,1-2-3.18,11.39,11.39,0,0,1-.72-4.14,11.58,11.58,0,0,1,.7-4.1,9.4,9.4,0,0,1,2-3.19,8.72,8.72,0,0,1,3-2.06A10,10,0,0,1,140.38,45.43Zm-.08,3.72a5.45,5.45,0,0,0-2,.34,4.32,4.32,0,0,0-1.5,1,5.13,5.13,0,0,0-1,1.5,7.15,7.15,0,0,0-.56,1.91h9.95a6,6,0,0,0-1.6-3.48A4.45,4.45,0,0,0,140.3,49.15Zm23.64-3.72a10.46,10.46,0,0,1,1.73.13,7.64,7.64,0,0,1,1.49.41l-1,4.14a6,6,0,0,0-1.54-.52,8.29,8.29,0,0,0-1.64-.18,4.87,4.87,0,0,0-1.84.34,3.89,3.89,0,0,0-1.44,1,4.71,4.71,0,0,0-.94,1.62,6.51,6.51,0,0,0-.34,2.18V65.1h-4.18V45.93h4.14v2.16a5.76,5.76,0,0,1,2.38-2A7.66,7.66,0,0,1,163.94,45.43Zm14.31,0a10.41,10.41,0,0,1,4,.77,8.1,8.1,0,0,1,3.14,2.29l-2.68,2.86a8,8,0,0,0-2.12-1.47,5.85,5.85,0,0,0-2.48-.51,5.57,5.57,0,0,0-2.24.45,5.32,5.32,0,0,0-1.8,1.26A5.81,5.81,0,0,0,172.9,53a7.42,7.42,0,0,0,0,5,5.83,5.83,0,0,0,1.19,1.94,5.34,5.34,0,0,0,1.8,1.26,5.57,5.57,0,0,0,2.24.45,6,6,0,0,0,2.58-.57,8.29,8.29,0,0,0,2.12-1.43l2.58,2.88a8.45,8.45,0,0,1-3.16,2.29,10.27,10.27,0,0,1-4,.77,10.73,10.73,0,0,1-4.14-.77,9.25,9.25,0,0,1-5.22-5.31,11.47,11.47,0,0,1,0-8,9.26,9.26,0,0,1,5.22-5.31A10.73,10.73,0,0,1,178.25,45.43ZM207.71,65.1h-4.18V62.8a7.4,7.4,0,0,1-2.48,2,7.66,7.66,0,0,1-3.54.76,9.34,9.34,0,0,1-6.8-2.84,9.68,9.68,0,0,1-2-3.19,11.46,11.46,0,0,1,0-8.11,9.7,9.7,0,0,1,2-3.19,9.34,9.34,0,0,1,6.8-2.84,7.59,7.59,0,0,1,3.54.77,7.51,7.51,0,0,1,2.48,2.05V45.93h4.18ZM198,49.37a5.79,5.79,0,0,0-2.43.49,5.44,5.44,0,0,0-1.81,1.32,5.88,5.88,0,0,0-1.14,2,7.28,7.28,0,0,0,0,4.76,5.87,5.87,0,0,0,1.14,2,5.42,5.42,0,0,0,1.81,1.32,6.23,6.23,0,0,0,4.79,0,5.49,5.49,0,0,0,1.82-1.29A5.83,5.83,0,0,0,203.37,58a7.29,7.29,0,0,0,0-4.88,5.83,5.83,0,0,0-1.18-1.94,5.51,5.51,0,0,0-1.82-1.29A5.77,5.77,0,0,0,198,49.37Zm25.58-3.94a10.46,10.46,0,0,1,1.73.13,7.64,7.64,0,0,1,1.49.41l-1,4.14a6,6,0,0,0-1.54-.52,8.31,8.31,0,0,0-1.64-.18,4.86,4.86,0,0,0-1.84.34,3.89,3.89,0,0,0-1.44,1,4.7,4.7,0,0,0-.94,1.62,6.51,6.51,0,0,0-.34,2.18V65.1h-4.18V45.93H218v2.16a5.75,5.75,0,0,1,2.38-2A7.66,7.66,0,0,1,223.59,45.43Zm13.73,0a7.59,7.59,0,0,1,3.54.77,7.51,7.51,0,0,1,2.48,2.05v-12h4.18V65.1h-4.18V62.8a7.4,7.4,0,0,1-2.48,2,7.66,7.66,0,0,1-3.54.76,9.34,9.34,0,0,1-6.8-2.84,9.69,9.69,0,0,1-2-3.19,11.46,11.46,0,0,1,0-8.11,9.7,9.7,0,0,1,2-3.19,9.34,9.34,0,0,1,6.8-2.84Zm15.09,17.9a1.22,1.22,0,0,1,.48.1,1.26,1.26,0,0,1,.39.26,1.23,1.23,0,0,1,.27.39,1.2,1.2,0,0,1,0,.95,1.24,1.24,0,0,1-.27.39,1.28,1.28,0,0,1-.39.26,1.2,1.2,0,0,1-.48.1,1.24,1.24,0,0,1-1.15-.75,1.2,1.2,0,0,1,0-.95,1.22,1.22,0,0,1,.66-.65A1.26,1.26,0,0,1,252.41,63.33Zm0,2.17a.91.91,0,0,0,.37-.07,1,1,0,0,0,.3-.2,1,1,0,0,0,0-1.34,1,1,0,0,0-.3-.2.92.92,0,0,0-.37-.07,1,1,0,0,0-.38.07,1,1,0,0,0-.3,1.55,1,1,0,0,0,.3.2A1,1,0,0,0,252.41,65.5Zm.07-1.52a.52.52,0,0,1,.34.1.32.32,0,0,1,.12.26.31.31,0,0,1-.09.23.45.45,0,0,1-.27.11l.37.43h-.29l-.34-.42h-.11v.42H252V64Zm-.28.21v.3h.28a.27.27,0,0,0,.15,0,.13.13,0,0,0,.06-.11.13.13,0,0,0-.06-.11.27.27,0,0,0-.15,0ZM237.82,49.37a5.79,5.79,0,0,0-2.43.49,5.43,5.43,0,0,0-1.81,1.32,5.88,5.88,0,0,0-1.14,2,7.28,7.28,0,0,0,0,4.76,5.87,5.87,0,0,0,1.14,2,5.41,5.41,0,0,0,1.81,1.32,6.23,6.23,0,0,0,4.79,0A5.49,5.49,0,0,0,242,59.9,5.83,5.83,0,0,0,243.18,58a7.29,7.29,0,0,0,0-4.88A5.83,5.83,0,0,0,242,51.13a5.51,5.51,0,0,0-1.82-1.29A5.77,5.77,0,0,0,237.82,49.37Z"/></svg>